<svg width="89" height="89" viewBox="0 0 89 89" fill="none" xmlns="http://www.w3.org/2000/svg">
<rect width="89" height="89" fill="#F1F1F1"/>
<g clip-path="url(#clip0_282_15)">
<path d="M34 34L56 56" stroke="#857E7E" stroke-width="2" stroke-linecap="round" stroke-linejoin="round"/>
<path d="M54 54H36C35.4696 54 34.9609 53.7893 34.5858 53.4142C34.2107 53.0391 34 52.5304 34 52V41C34 40.4696 34.2107 39.9609 34.5858 39.5858C34.9609 39.2107 35.4696 39 36 39H39M42 36H48L50 39H54C54.5304 39 55.0391 39.2107 55.4142 39.5858C55.7893 39.9609 56 40.4696 56 41V50.34M48.28 48.28C47.9481 48.765 47.5134 49.171 47.0068 49.469C46.5002 49.7669 45.9342 49.9496 45.3489 50.004C44.7637 50.0584 44.1737 49.9831 43.6209 49.7836C43.0681 49.5841 42.566 49.2652 42.1504 48.8496C41.7348 48.434 41.4159 47.9319 41.2164 47.3791C41.0169 46.8263 40.9416 46.2363 40.996 45.6511C41.0504 45.0658 41.2331 44.4998 41.531 43.9932C41.829 43.4866 42.235 43.0519 42.72 42.72" stroke="#857E7E" stroke-width="2" stroke-linecap="round" stroke-linejoin="round"/>
</g>
<defs>
<clipPath id="clip0_282_15">
<rect width="24" height="24" fill="white" transform="translate(33 33)"/>
</clipPath>
</defs>
</svg>
