<svg width="595" height="208" viewBox="0 0 595 208" fill="none" xmlns="http://www.w3.org/2000/svg">
<rect width="595" height="208" fill="white"/>
<g filter="url(#filter0_d_272_5)">
<path d="M40.15 156C38.9833 156 38.4 155.417 38.4 154.25V64.44C38.4 63.2733 38.9833 62.69 40.15 62.69H59.96C61.1267 62.69 61.71 63.2733 61.71 64.44V154.25C61.71 155.417 61.1267 156 59.96 156H40.15ZM80.2086 156C79.0419 156 78.4586 155.417 78.4586 154.25V64.44C78.4586 63.2733 79.0419 62.69 80.2086 62.69H119.969C121.089 62.69 122.022 63.0633 122.769 63.81L136.769 77.81C137.562 78.6033 137.959 79.5367 137.959 80.61V154.25C137.959 155.417 137.375 156 136.209 156H116.399C115.232 156 114.649 155.417 114.649 154.25V81.31H101.769V154.25C101.769 155.417 101.185 156 100.019 156H80.2086ZM156.498 156C155.331 156 154.748 155.417 154.748 154.25V64.44C154.748 63.2733 155.331 62.69 156.498 62.69H176.308C177.474 62.69 178.058 63.2733 178.058 64.44V97.69H195.348V64.44C195.348 63.2733 195.931 62.69 197.098 62.69H216.908C218.074 62.69 218.658 63.2733 218.658 64.44V154.25C218.658 155.417 218.074 156 216.908 156H197.098C195.931 156 195.348 155.417 195.348 154.25V116.31H178.058V154.25C178.058 155.417 177.474 156 176.308 156H156.498ZM236.672 156C235.505 156 234.922 155.417 234.922 154.25V89.36C234.922 88.7533 235.155 88.0533 235.622 87.26L252.212 63.74C252.725 63.04 253.472 62.69 254.452 62.69H277.622C278.648 62.69 279.395 63.04 279.862 63.74L296.522 87.26C296.988 87.9133 297.222 88.6133 297.222 89.36V154.25C297.222 155.417 296.638 156 295.472 156H275.662C274.495 156 273.912 155.417 273.912 154.25V124.5H258.302V154.25C258.302 155.417 257.718 156 256.552 156H236.672ZM266.072 109.45C270.365 109.45 273.258 108.517 274.752 106.65C276.292 104.737 277.062 101.12 277.062 95.8C277.062 90.48 276.292 86.8867 274.752 85.02C273.258 83.1067 270.365 82.15 266.072 82.15C261.825 82.15 258.932 83.1067 257.392 85.02C255.898 86.8867 255.152 90.48 255.152 95.8C255.152 101.12 255.898 104.737 257.392 106.65C258.932 108.517 261.825 109.45 266.072 109.45ZM336.365 156C335.432 156 334.498 155.697 333.565 155.09L322.155 147.39L314.315 134.79C313.988 134.183 313.708 133.787 313.475 133.6C313.242 133.367 313.125 132.9 313.125 132.2V102.8C313.125 102.1 313.218 101.633 313.405 101.4C313.592 101.167 313.895 100.747 314.315 100.14L321.455 88.24L333.565 79.91C333.985 79.63 334.405 79.42 334.825 79.28C335.245 79.0933 335.758 79 336.365 79H348.475C349.642 79 350.225 79.5833 350.225 80.75V93.84C350.225 94.2133 350.178 94.61 350.085 95.03C350.038 95.45 349.828 95.7767 349.455 96.01L341.475 100L335.315 108.05V126.74L341.825 134.16L349.455 138.99C349.922 139.27 350.155 139.62 350.155 140.04C350.202 140.413 350.225 140.787 350.225 141.16V154.25C350.225 155.417 349.642 156 348.475 156H336.365ZM365.951 156C364.784 156 364.201 155.417 364.201 154.25V64.44C364.201 63.2733 364.784 62.69 365.951 62.69H385.761C386.927 62.69 387.511 63.2733 387.511 64.44V137.31H405.151C406.317 137.31 406.901 137.893 406.901 139.06V154.25C406.901 155.417 406.317 156 405.151 156H365.951ZM436.058 156C434.938 156 434.005 155.603 433.258 154.81L419.258 140.81C418.465 140.063 418.068 139.13 418.068 138.01V64.44C418.068 63.2733 418.651 62.69 419.818 62.69H439.628C440.795 62.69 441.378 63.2733 441.378 64.44V135.91C441.378 136.843 441.845 137.31 442.778 137.31H454.258V64.44C454.258 63.2733 454.841 62.69 456.008 62.69H475.818C476.985 62.69 477.568 63.2733 477.568 64.44V154.25C477.568 155.417 476.985 156 475.818 156H436.058ZM496.457 156C495.29 156 494.707 155.417 494.707 154.25V64.44C494.707 63.2733 495.29 62.69 496.457 62.69H538.597C539.67 62.69 540.604 63.0633 541.397 63.81L555.397 77.81C556.144 78.6033 556.517 79.5367 556.517 80.61V95.31C556.517 95.7767 556.424 96.15 556.237 96.43C556.05 96.71 555.77 97.0367 555.397 97.41L544.407 107.21L543.357 109.8L544.407 111.69L555.397 121.49C555.77 121.863 556.05 122.19 556.237 122.47C556.424 122.703 556.517 123.077 556.517 123.59V138.01C556.517 139.13 556.144 140.063 555.397 140.81L541.397 154.81C540.604 155.603 539.67 156 538.597 156H496.457ZM524.317 140.25C528.19 140.25 530.827 139.48 532.227 137.94C533.674 136.4 534.397 133.483 534.397 129.19C534.397 124.85 533.674 121.91 532.227 120.37C530.827 118.83 528.19 118.06 524.317 118.06C520.49 118.06 517.854 118.83 516.407 120.37C515.007 121.91 514.307 124.85 514.307 129.19C514.307 133.483 515.007 136.4 516.407 137.94C517.854 139.48 520.49 140.25 524.317 140.25ZM524.317 100.56C528.19 100.56 530.827 99.79 532.227 98.25C533.674 96.71 534.397 93.7933 534.397 89.5C534.397 85.2067 533.674 82.29 532.227 80.75C530.827 79.21 528.19 78.44 524.317 78.44C520.49 78.44 517.854 79.21 516.407 80.75C515.007 82.29 514.307 85.2067 514.307 89.5C514.307 93.7933 515.007 96.71 516.407 98.25C517.854 99.79 520.49 100.56 524.317 100.56Z" fill="#85AADB"/>
</g>
<defs>
<filter id="filter0_d_272_5" x="38.4" y="62.69" width="525.117" height="95.31" filterUnits="userSpaceOnUse" color-interpolation-filters="sRGB">
<feFlood flood-opacity="0" result="BackgroundImageFix"/>
<feColorMatrix in="SourceAlpha" type="matrix" values="0 0 0 0 0 0 0 0 0 0 0 0 0 0 0 0 0 0 127 0" result="hardAlpha"/>
<feOffset dx="7" dy="2"/>
<feComposite in2="hardAlpha" operator="out"/>
<feColorMatrix type="matrix" values="0 0 0 0 0 0 0 0 0 0 0 0 0 0 0 0 0 0 0.25 0"/>
<feBlend mode="normal" in2="BackgroundImageFix" result="effect1_dropShadow_272_5"/>
<feBlend mode="normal" in="SourceGraphic" in2="effect1_dropShadow_272_5" result="shape"/>
</filter>
</defs>
</svg>
