<svg width="40" height="40" viewBox="0 0 40 40" fill="none" xmlns="http://www.w3.org/2000/svg">
<g filter="url(#filter0_i_275_27)">
<circle cx="20" cy="20" r="20" fill="white"/>
<path d="M22.1667 9.16675H13.5C12.9254 9.16675 12.3743 9.39502 11.968 9.80135C11.5616 10.2077 11.3334 10.7588 11.3334 11.3334V28.6667C11.3334 29.2414 11.5616 29.7925 11.968 30.1988C12.3743 30.6051 12.9254 30.8334 13.5 30.8334H26.5C27.0747 30.8334 27.6258 30.6051 28.0321 30.1988C28.4384 29.7925 28.6667 29.2414 28.6667 28.6667V15.6667L22.1667 9.16675Z" stroke="#878FC8" stroke-width="2" stroke-linecap="round" stroke-linejoin="round"/>
<path d="M22.1666 9.16675V15.6667H28.6666" stroke="#878FC8" stroke-width="2" stroke-linecap="round" stroke-linejoin="round"/>
<path d="M24.3333 21.0833H15.6666" stroke="#878FC8" stroke-width="2" stroke-linecap="round" stroke-linejoin="round"/>
<path d="M24.3333 25.4167H15.6666" stroke="#878FC8" stroke-width="2" stroke-linecap="round" stroke-linejoin="round"/>
<path d="M17.8333 16.75H16.75H15.6666" stroke="#878FC8" stroke-width="2" stroke-linecap="round" stroke-linejoin="round"/>
</g>
<defs>
<filter id="filter0_i_275_27" x="0" y="0" width="40" height="44" filterUnits="userSpaceOnUse" color-interpolation-filters="sRGB">
<feFlood flood-opacity="0" result="BackgroundImageFix"/>
<feBlend mode="normal" in="SourceGraphic" in2="BackgroundImageFix" result="shape"/>
<feColorMatrix in="SourceAlpha" type="matrix" values="0 0 0 0 0 0 0 0 0 0 0 0 0 0 0 0 0 0 127 0" result="hardAlpha"/>
<feOffset dy="4"/>
<feGaussianBlur stdDeviation="2"/>
<feComposite in2="hardAlpha" operator="arithmetic" k2="-1" k3="1"/>
<feColorMatrix type="matrix" values="0 0 0 0 0 0 0 0 0 0 0 0 0 0 0 0 0 0 0.25 0"/>
<feBlend mode="normal" in2="shape" result="effect1_innerShadow_275_27"/>
</filter>
</defs>
</svg>
