<svg width="40" height="40" viewBox="0 0 40 40" fill="none" xmlns="http://www.w3.org/2000/svg">
<g filter="url(#filter0_i_5_75)">
<circle cx="20" cy="20" r="20" fill="white"/>
<path d="M30.6667 32V29.3333C30.6667 27.9188 30.1048 26.5623 29.1046 25.5621C28.1044 24.5619 26.7479 24 25.3334 24H14.6667C13.2522 24 11.8957 24.5619 10.8955 25.5621C9.89528 26.5623 9.33337 27.9188 9.33337 29.3333V32" stroke="#5C6EF7" stroke-width="2" stroke-linecap="round" stroke-linejoin="round"/>
<path d="M20 18.6667C22.9455 18.6667 25.3333 16.2789 25.3333 13.3333C25.3333 10.3878 22.9455 8 20 8C17.0544 8 14.6666 10.3878 14.6666 13.3333C14.6666 16.2789 17.0544 18.6667 20 18.6667Z" stroke="#5C6EF7" stroke-width="2" stroke-linecap="round" stroke-linejoin="round"/>
</g>
<defs>
<filter id="filter0_i_5_75" x="0" y="0" width="40" height="44" filterUnits="userSpaceOnUse" color-interpolation-filters="sRGB">
<feFlood flood-opacity="0" result="BackgroundImageFix"/>
<feBlend mode="normal" in="SourceGraphic" in2="BackgroundImageFix" result="shape"/>
<feColorMatrix in="SourceAlpha" type="matrix" values="0 0 0 0 0 0 0 0 0 0 0 0 0 0 0 0 0 0 127 0" result="hardAlpha"/>
<feOffset dy="4"/>
<feGaussianBlur stdDeviation="2"/>
<feComposite in2="hardAlpha" operator="arithmetic" k2="-1" k3="1"/>
<feColorMatrix type="matrix" values="0 0 0 0 0 0 0 0 0 0 0 0 0 0 0 0 0 0 0.25 0"/>
<feBlend mode="normal" in2="shape" result="effect1_innerShadow_5_75"/>
</filter>
</defs>
</svg>
